<?xml version="1.0" encoding="UTF-8"?>
<svg width="154px" height="98px" viewBox="0 0 154 98" version="1.1" xmlns="http://www.w3.org/2000/svg" xmlns:xlink="http://www.w3.org/1999/xlink">
    <!-- Generator: Sketch 63.1 (92452) - https://sketch.com -->
    <title>Group</title>
    <desc>Created with Sketch.</desc>
    <g id="juice" stroke="none" stroke-width="1" fill="none" fill-rule="evenodd">
        <g id="Desktop-HD-Copy" transform="translate(-644.000000, -466.000000)" fill-rule="nonzero">
            <g id="Group" transform="translate(638.000000, 458.000000)">
                <path d="M41.79757,17.9304134 C42.51757,17.9304134 43.35757,17.5704134 44.31757,16.8504134 C45.27757,16.1304134 46.47757,15.0104134 47.91757,13.4904134 C48.79757,12.1304134 49.23757,11.0904134 49.23757,10.3704134 C49.23757,9.49041345 48.79757,8.37041345 47.91757,7.01041345 C46.95757,6.29041345 45.99757,5.93041345 45.03757,5.93041345 C43.59757,5.93041345 42.31757,6.61041345 41.19757,7.97041345 C39.51757,9.97041345 38.67757,12.0104134 38.67757,14.0904134 C38.67757,15.2104134 39.03757,16.2104134 39.75757,17.0904134 C40.31757,17.6504134 40.99757,17.9304134 41.79757,17.9304134 Z M14.31757,101.210413 C16.95757,101.210413 19.11757,100.330413 20.79757,98.5704134 C21.83757,97.7704134 23.15757,96.1504134 24.75757,93.7104134 C26.35757,91.2704134 27.47757,89.2904134 28.11757,87.7704134 C29.79757,84.2504134 30.75757,81.6504134 30.99757,79.9704134 C31.15757,79.0104134 31.71757,77.3704134 32.67757,75.0504134 C33.63757,72.4104134 34.15757,70.7704134 34.23757,70.1304134 C34.39757,69.1704134 34.71757,67.8504134 35.19757,66.1704134 C35.35757,65.6904134 35.63757,64.6904134 36.03757,63.1704134 C36.75757,60.2904134 37.51757,56.8904134 38.31757,52.9704134 C39.11757,49.0504134 39.51757,46.6104134 39.51757,45.6504134 L39.51757,45.6504134 L39.87757,41.9304134 C40.19757,40.0104134 40.35757,38.4904134 40.35757,37.3704134 C40.35757,36.6504134 40.27757,36.1104134 40.11757,35.7504134 C39.95757,35.3904134 39.55757,34.8904134 38.91757,34.2504134 C38.51757,33.8504134 38.01757,33.5104134 37.41757,33.2304134 C36.81757,32.9504134 36.27757,32.8104134 35.79757,32.8104134 C35.47757,32.8104134 35.23757,32.8904134 35.07757,33.0504134 C35.07757,33.2904134 34.97757,33.9304134 34.77757,34.9704134 C34.57757,36.0104134 34.47757,37.0504134 34.47757,38.0904134 C33.91757,39.2104134 33.63757,40.7704134 33.63757,42.7704134 C33.55757,43.1704134 33.29757,44.2104134 32.85757,45.8904134 C32.41757,47.5704134 32.07757,49.3304134 31.83757,51.1704134 L31.83757,51.1704134 L31.23757,53.9304134 C29.31757,62.8104134 27.87757,68.9304134 26.91757,72.2904134 C25.95757,74.8504134 24.47757,78.1104134 22.47757,82.0704134 C20.47757,86.0304134 18.95757,88.7304134 17.91757,90.1704134 C17.03757,91.5304134 15.85757,92.6304134 14.37757,93.4704134 C12.89757,94.3104134 11.71757,94.5704134 10.83757,94.2504134 C9.87756998,94.2504134 9.09756998,93.7904134 8.49756998,92.8704134 C7.89756998,91.9504134 7.59756998,90.8504134 7.59756998,89.5704134 C7.59756998,88.6904134 7.35756998,87.9704134 6.87756998,87.4104134 C6.39756998,86.8504134 5.87756998,86.5704134 5.31756998,86.5704134 C4.43756998,86.5704134 3.99756998,87.3704134 3.99756998,88.9704134 C3.99756998,90.2504134 4.27756998,91.7504134 4.83756998,93.4704134 C5.39756998,95.1904134 6.11756998,96.7304134 6.99756998,98.0904134 C8.99756998,100.170413 11.43757,101.210413 14.31757,101.210413 Z M72.31757,75.8904134 C73.19757,75.8904134 74.01757,75.6704134 74.77757,75.2304134 C75.53757,74.7904134 75.99757,74.2104134 76.15757,73.4904134 C76.23757,72.3704134 76.19757,71.4904134 76.03757,70.8504134 C75.87757,70.2104134 75.39757,69.6104134 74.59757,69.0504134 C72.27757,67.0504134 71.11757,64.5304134 71.11757,61.4904134 C71.19757,59.8904134 71.49757,58.2304134 72.01757,56.5104134 C72.53757,54.7904134 73.55757,52.3304134 75.07757,49.1304134 C77.39757,43.6904134 78.55757,39.6504134 78.55757,37.0104134 C78.55757,35.7304134 78.27757,34.8504134 77.71757,34.3704134 C77.47757,34.2104134 77.23757,33.8704134 76.99757,33.3504134 C76.75757,32.8304134 76.51757,32.6104134 76.27757,32.6904134 L76.27757,32.6904134 L74.35757,32.8104134 C74.19757,32.4904134 73.83757,32.4704134 73.27757,32.7504134 C72.71757,33.0304134 72.27757,33.4104134 71.95757,33.8904134 C70.51757,34.7704134 69.79757,35.9304134 69.79757,37.3704134 C69.79757,37.8504134 69.83757,38.2104134 69.91757,38.4504134 C69.67757,41.3304134 68.99757,44.1304134 67.87757,46.8504134 C65.31757,52.8504134 62.63757,57.2104134 59.83757,59.9304134 C57.03757,62.6504134 54.63757,64.0104134 52.63757,64.0104134 C52.15757,64.0104134 51.71757,63.8904134 51.31757,63.6504134 C50.35757,63.3304134 49.87757,62.3304134 49.87757,60.6504134 C49.87757,57.7704134 51.43757,52.5704134 54.55757,45.0504134 C56.95757,40.4904134 58.15757,37.2104134 58.15757,35.2104134 C58.15757,34.6504134 58.03757,34.2104134 57.79757,33.8904134 C57.71757,33.0904134 57.41757,32.4504134 56.89757,31.9704134 C56.37757,31.4904134 55.71757,31.2504134 54.91757,31.2504134 C54.27757,31.2504134 53.75757,31.3304134 53.35757,31.4904134 C52.23757,33.1704134 50.39757,36.5304134 47.83757,41.5704134 C45.91757,45.8104134 44.61757,49.2904134 43.93757,52.0104134 C43.25757,54.7304134 42.83757,57.5704134 42.67757,60.5304134 C42.43757,61.5704134 42.31757,62.5304134 42.31757,63.4104134 C42.31757,64.6904134 42.57757,65.7704134 43.09757,66.6504134 C43.61757,67.5304134 44.39757,68.4104134 45.43757,69.2904134 C46.87757,71.0504134 48.39757,71.9304134 49.99757,71.9304134 C51.75757,71.9304134 54.03757,71.0104134 56.83757,69.1704134 C58.67757,68.2904134 60.51757,66.9304134 62.35757,65.0904134 C63.63757,64.1304134 64.51757,63.0504134 64.99757,61.8504134 L64.99757,61.8504134 L64.99757,64.3704134 C64.99757,65.5704134 65.07757,66.4104134 65.23757,66.8904134 C66.19757,70.4904134 67.63757,73.2104134 69.55757,75.0504134 C70.35757,75.6104134 71.27757,75.8904134 72.31757,75.8904134 Z M96.35757,24.0504134 C96.59757,24.0504134 96.83757,23.9304134 97.07757,23.6904134 C98.67757,22.6504134 99.47757,21.1704134 99.47757,19.2504134 C99.47757,18.4504134 99.33757,17.5704134 99.05757,16.6104134 C98.77757,15.6504134 98.37757,14.6504134 97.85757,13.6104134 C97.33757,12.5704134 96.99757,11.8904134 96.83757,11.5704134 C95.87757,11.1704134 95.19757,10.9104134 94.79757,10.7904134 C94.39757,10.6704134 94.07757,10.6104134 93.83757,10.6104134 C92.15757,10.6904134 90.99757,11.6504134 90.35757,13.4904134 C89.71757,15.3304134 89.47757,17.0504134 89.63757,18.6504134 C89.63757,19.0504134 90.29757,19.9104134 91.61757,21.2304134 C92.93757,22.5504134 93.99757,23.2504134 94.79757,23.3304134 C95.51757,23.8104134 96.03757,24.0504134 96.35757,24.0504134 Z M83.51757,71.5704134 C83.83757,71.5704134 84.07757,71.4104134 84.23757,71.0904134 C84.39757,70.7704134 84.57757,69.9504134 84.77757,68.6304134 C84.97757,67.3104134 85.11757,66.3704134 85.19757,65.8104134 C85.11757,63.8904134 85.23757,62.0904134 85.55757,60.4104134 C85.87757,58.7304134 86.59757,55.8904134 87.71757,51.8904134 C89.31757,46.5304134 90.11757,43.0104134 90.11757,41.3304134 C90.11757,40.2104134 89.79757,39.2104134 89.15757,38.3304134 C88.75757,37.9304134 88.27757,37.5704134 87.71757,37.2504134 C87.15757,36.9304134 86.63757,36.7704134 86.15757,36.7704134 C85.67757,36.7704134 85.31757,36.9704134 85.07757,37.3704134 C84.75757,38.0104134 83.89757,40.9104134 82.49757,46.0704134 C81.09757,51.2304134 80.07757,55.2904134 79.43757,58.2504134 C79.27757,59.5304134 79.03757,61.6904134 78.71757,64.7304134 C78.87757,66.2504134 79.41757,67.7704134 80.33757,69.2904134 C81.25757,70.8104134 82.31757,71.5704134 83.51757,71.5704134 Z M104.31757,72.5304134 C106.63757,72.5304134 108.35757,72.3904134 109.47757,72.1104134 C110.59757,71.8304134 111.55757,71.2904134 112.35757,70.4904134 C112.35757,70.2504134 112.55757,70.0304134 112.95757,69.8304134 C113.35757,69.6304134 113.71757,69.4504134 114.03757,69.2904134 C114.91757,69.2904134 115.95757,68.7304134 117.15757,67.6104134 C117.87757,66.8904134 118.43757,66.5304134 118.83757,66.5304134 L118.83757,66.5304134 L118.95757,66.5304134 C119.35757,66.2104134 120.13757,65.5504134 121.29757,64.5504134 C122.45757,63.5504134 123.27757,62.6904134 123.75757,61.9704134 C124.07757,61.6504134 124.33757,61.2304134 124.53757,60.7104134 C124.73757,60.1904134 124.83757,59.7704134 124.83757,59.4504134 C124.43757,59.0504134 124.23757,58.6504134 124.23757,58.2504134 L124.23757,58.2504134 L124.35757,57.6504134 C124.35757,57.4104134 124.03757,57.2904134 123.39757,57.2904134 C122.27757,57.2904134 121.35757,57.7704134 120.63757,58.7304134 C120.31757,59.0504134 120.03757,59.2104134 119.79757,59.2104134 C119.55757,59.2104134 119.43757,59.0504134 119.43757,58.7304134 C119.43757,58.5704134 119.31757,58.5504134 119.07757,58.6704134 C118.83757,58.7904134 118.49757,58.9904134 118.05757,59.2704134 C117.61757,59.5504134 117.11757,59.8904134 116.55757,60.2904134 L116.55757,60.2904134 L113.67757,62.4504134 C111.75757,64.0504134 110.27757,65.0904134 109.23757,65.5704134 C107.55757,66.3704134 106.07757,66.7704134 104.79757,66.7704134 C103.59757,66.7704134 102.55757,66.4504134 101.67757,65.8104134 C101.03757,65.4904134 100.59757,65.1704134 100.35757,64.8504134 C100.11757,64.5304134 99.99757,64.0904134 99.99757,63.5304134 C99.99757,63.2904134 99.89757,62.9704134 99.69757,62.5704134 C99.49757,62.1704134 99.39757,61.8904134 99.39757,61.7304134 C99.55757,61.3304134 99.87757,60.3704134 100.35757,58.8504134 C100.83757,57.3304134 101.47757,55.3704134 102.27757,52.9704134 C103.07757,51.0504134 104.29757,48.8904134 105.93757,46.4904134 C107.57757,44.0904134 108.91757,42.3304134 109.95757,41.2104134 C112.91757,38.0104134 115.31757,36.4104134 117.15757,36.4104134 C117.71757,36.4104134 118.15757,36.7704134 118.47757,37.4904134 C118.79757,38.2104134 118.95757,39.0504134 118.95757,40.0104134 C118.95757,40.3304134 118.87757,40.8904134 118.71757,41.6904134 C118.39757,42.8104134 118.23757,43.4904134 118.23757,43.7304134 C118.23757,43.9704134 118.39757,44.4904134 118.71757,45.2904134 C119.67757,46.4904134 120.67757,47.0904134 121.71757,47.0904134 C123.23757,47.0904134 124.39757,45.4904134 125.19757,42.2904134 C125.43757,41.3304134 125.55757,40.4504134 125.55757,39.6504134 C125.55757,37.4904134 124.67757,35.5304134 122.91757,33.7704134 C121.31757,31.6104134 119.35757,30.5304134 117.03757,30.5304134 C115.35757,30.5304134 113.39757,30.9304134 111.15757,31.7304134 C110.27757,32.0504134 109.25757,32.5704134 108.09757,33.2904134 C106.93757,34.0104134 106.07757,34.6904134 105.51757,35.3304134 C104.31757,36.4504134 102.69757,38.4704134 100.65757,41.3904134 C98.61757,44.3104134 97.59757,46.0504134 97.59757,46.6104134 C97.51757,46.7704134 97.37757,47.1304134 97.17757,47.6904134 C96.97757,48.2504134 96.71757,48.8504134 96.39757,49.4904134 C95.59757,51.5704134 94.95757,53.7904134 94.47757,56.1504134 C93.99757,58.5104134 93.75757,60.6904134 93.75757,62.6904134 C93.75757,64.4504134 93.91757,65.7704134 94.23757,66.6504134 C95.03757,67.4504134 95.83757,68.6504134 96.63757,70.2504134 C97.67757,71.2104134 98.59757,71.8304134 99.39757,72.1104134 C100.19757,72.3904134 101.83757,72.5304134 104.31757,72.5304134 Z M141.512698,73.6299264 C143.992698,73.6299264 146.472698,72.9499264 148.952698,71.5899264 C150.152698,70.7899264 151.532698,69.6899264 153.092698,68.2899264 C154.652698,66.8899264 155.632698,65.7899264 156.032698,64.9899264 C156.832698,63.2299264 157.232698,62.0299264 157.232698,61.3899264 C157.232698,60.7499264 156.872698,60.1499264 156.152698,59.5899264 C155.352698,59.4299264 154.792698,59.3499264 154.472698,59.3499264 C153.272698,59.3499264 152.472698,59.7099264 152.072698,60.4299264 C151.512698,60.9099264 150.592698,61.7899264 149.312698,63.0699264 C147.872698,64.5099264 146.752698,65.5699264 145.952698,66.2499264 C145.152698,66.9299264 144.312698,67.3899264 143.432698,67.6299264 C143.032698,67.7899264 142.472698,67.8699264 141.752698,67.8699264 C140.952698,67.8699264 140.192698,67.6899264 139.472698,67.3299264 C138.752698,66.9699264 138.152698,66.5299264 137.672698,66.0099264 C137.192698,65.4899264 136.912698,65.1899264 136.832698,65.1099264 C136.432698,64.3099264 136.232698,63.2299264 136.232698,61.8699264 C136.232698,60.9099264 136.272698,60.1499264 136.352698,59.5899264 C136.752698,54.7099264 137.432698,52.5499264 138.392698,53.1099264 C138.952698,53.4299264 140.192698,53.5899264 142.112698,53.5899264 C144.992698,53.5899264 147.552698,53.3099264 149.792698,52.7499264 C151.632698,52.0299264 153.652698,50.7499264 155.852698,48.9099264 C158.052698,47.0699264 159.312698,45.5499264 159.632698,44.3499264 C160.432698,42.5899264 160.832698,40.8699264 160.832698,39.1899264 C160.832698,36.7899264 160.072698,35.0299264 158.552698,33.9099264 C157.432698,32.7099264 156.332698,31.7899264 155.252698,31.1499264 C154.172698,30.5099264 152.912698,30.1899264 151.472698,30.1899264 C150.512698,30.1899264 149.392698,30.3299264 148.112698,30.6099264 C146.832698,30.8899264 145.912698,31.1899264 145.352698,31.5099264 C143.912698,32.3099264 142.092698,33.6899264 139.892698,35.6499264 C137.692698,37.6099264 136.032698,39.4699264 134.912698,41.2299264 C134.192698,42.7499264 133.452698,43.7699264 132.692698,44.2899264 C131.932698,44.8099264 131.392698,44.7499264 131.072698,44.1099264 C131.072698,43.6299264 130.512698,43.3899264 129.392698,43.3899264 C129.072698,43.3099264 128.712698,43.3299264 128.312698,43.4499264 C127.912698,43.5699264 127.592698,43.6299264 127.352698,43.6299264 C127.112698,43.6299264 126.892698,43.8699264 126.692698,44.3499264 C126.492698,44.8299264 126.392698,45.3499264 126.392698,45.9099264 L126.392698,45.9099264 L126.512698,46.5099264 C126.432698,46.9099264 126.712698,47.4299264 127.352698,48.0699264 C127.992698,48.7099264 128.392698,49.1099264 128.552698,49.2699264 C129.112698,49.7499264 129.472698,50.1899264 129.632698,50.5899264 C129.792698,50.9899264 129.872698,51.5499264 129.872698,52.2699264 L129.872698,52.2699264 L129.632698,56.5899264 C129.392698,58.5099264 129.272698,60.1899264 129.272698,61.6299264 C129.272698,64.5899264 129.792698,66.8899264 130.832698,68.5299264 C131.872698,70.1699264 133.672698,71.5099264 136.232698,72.5499264 C138.232698,73.2699264 139.992698,73.6299264 141.512698,73.6299264 Z M142.315134,48.1201699 C141.675134,48.1201699 140.875134,48.0601699 139.915134,47.9401699 C138.955134,47.8201699 138.555134,47.6401699 138.715134,47.4001699 C138.315134,47.1601699 138.675134,46.3001699 139.795134,44.8201699 C140.915134,43.3401699 142.255134,41.8401699 143.815134,40.3201699 C145.375134,38.8001699 146.555134,37.9201699 147.355134,37.6801699 C148.555134,36.7201699 149.715134,36.2401699 150.835134,36.2401699 C151.555134,36.2401699 152.195134,36.5201699 152.755134,37.0801699 C153.235134,37.5601699 153.475134,38.4001699 153.475134,39.6001699 C153.475134,40.2401699 153.355134,40.8801699 153.115134,41.5201699 C151.755134,43.6001699 150.575134,45.0601699 149.575134,45.9001699 C148.575134,46.7401699 147.315134,47.2801699 145.795134,47.5201699 C144.275134,47.7601699 143.115134,47.9601699 142.315134,48.1201699 Z" id="juice" fill="#FFFFFF" transform="translate(82.415134, 53.570413) rotate(-4.000000) translate(-82.415134, -53.570413) "></path>
                <path d="M51.9878203,92.5712176 C57.1878203,92.5712176 64.0078203,92.4912176 72.4478203,92.3312176 C80.8878203,92.1712176 109.18782,92.0512176 113.34782,91.9712176 L120.90782,91.3712176 C121.94782,91.5312176 122.76782,91.4512176 123.36782,91.1312176 C123.96782,90.8112176 124.26782,90.2912176 124.26782,89.5712176 C124.26782,88.6912176 123.78782,87.7712176 122.82782,86.8112176 C121.94782,86.0112176 121.14782,85.5112176 120.42782,85.3112176 C119.70782,85.1112176 118.30782,85.0112176 116.22782,85.0112176 C110.38782,85.0112176 80.0678203,85.1712176 69.2678203,85.4912176 C58.4678203,85.8112176 51.9078203,86.2112176 49.5878203,86.6912176 C47.3478203,86.9312176 45.7878203,87.1912176 44.9078203,87.4712176 C44.0278203,87.7512176 43.5878203,88.1312176 43.5878203,88.6112176 C43.5878203,89.0112176 43.8278203,89.5712176 44.3078203,90.2912176 C44.6278203,90.9312176 45.0078203,91.3712176 45.4478203,91.6112176 C45.8878203,91.8512176 46.6678203,91.9712176 47.7878203,91.9712176 C48.9878203,92.3712176 50.3878203,92.5712176 51.9878203,92.5712176 Z" id="—" fill="#AFFEC7" transform="translate(83.927820, 88.791218) rotate(-4.000000) translate(-83.927820, -88.791218) "></path>
                <path d="M131.859649,89 C132.444444,89 133.292398,88.7835052 134.403509,88.3505155 C135.573099,87.7319588 136.464912,87.0515464 137.078947,86.3092784 C137.692982,85.5670103 138,84.8247423 138,84.0824742 C138,82.7835052 137.210526,81.6391753 135.631579,80.6494845 C134.520468,80.2164948 133.818713,80 133.526316,80 C133,80 132.152047,80.371134 130.982456,81.1134021 C128.994152,82.5360825 128,83.9278351 128,85.2886598 C128,86.1546392 128.409357,87.0206186 129.22807,87.8865979 C130.163743,88.628866 131.040936,89 131.859649,89 Z" id=";" fill="#AFFEC7" transform="translate(133.000000, 84.500000) scale(-1, 1) rotate(33.000000) translate(-133.000000, -84.500000) "></path>
            </g>
        </g>
    </g>
</svg>